<?xml version="1.0" encoding="UTF-8"?>
<svg width="232px" height="319px" viewBox="0 0 232 319" version="1.1" xmlns="http://www.w3.org/2000/svg" xmlns:xlink="http://www.w3.org/1999/xlink">
    <title>Group</title>
    <g id="Page-1" stroke="none" stroke-width="1" fill="none" fill-rule="evenodd">
        <g id="Group">
            <rect id="Rectangle" fill="#FFD01B" x="116" y="58" width="29" height="29"></rect>
            <rect id="Rectangle-Copy-6" fill="#FFA41B" x="87" y="58" width="29" height="29"></rect>
            <rect id="Rectangle" fill="#FFA41B" x="145" y="58" width="29" height="29"></rect>
            <rect id="Rectangle-Copy-2" fill="#FFA41B" x="116" y="87" width="29" height="29"></rect>
            <rect id="Rectangle-Copy-7" fill="#FFA41B" x="87" y="87" width="29" height="29"></rect>
            <rect id="Rectangle-Copy-5" fill="#FFA41B" x="87" y="0" width="29" height="29"></rect>
            <rect id="Rectangle-Copy-4" fill="#FFA41B" x="116" y="29" width="29" height="29"></rect>
            <rect id="Rectangle-Copy" fill="#FFD01B" x="145" y="87" width="29" height="29"></rect>
            <rect id="Rectangle-Copy-11" fill="#FFA41B" x="116" y="116" width="29" height="29"></rect>
            <rect id="Rectangle-Copy-10" fill="#FFD01B" x="145" y="116" width="29" height="29"></rect>
            <rect id="Rectangle-Copy-9" fill="#FFA41B" x="116" y="145" width="29" height="29"></rect>
            <rect id="Rectangle-Copy-8" fill="#FFD01B" x="145" y="145" width="29" height="29"></rect>
            <rect id="Rectangle-Copy-15" fill="#FFD01B" x="116" y="174" width="29" height="29"></rect>
            <rect id="Rectangle-Copy-14" fill="#FFD01B" x="145" y="174" width="29" height="29"></rect>
            <rect id="Rectangle-Copy-13" fill="#FFD01B" x="116" y="203" width="29" height="29"></rect>
            <rect id="Rectangle-Copy-12" fill="#FFD01B" x="145" y="203" width="29" height="29"></rect>
            <rect id="Rectangle-Copy-23" fill="#FFD01B" x="174" y="116" width="29" height="29"></rect>
            <rect id="Rectangle-Copy-22" fill="#FFA41B" x="203" y="116" width="29" height="29"></rect>
            <rect id="Rectangle-Copy-21" fill="#FFA41B" x="174" y="145" width="29" height="29"></rect>
            <rect id="Rectangle-Copy-20" fill="#FFA41B" x="203" y="145" width="29" height="29"></rect>
            <rect id="Rectangle-Copy-19" fill="#FFA41B" x="174" y="174" width="29" height="29"></rect>
            <rect id="Rectangle-Copy-18" fill="#FFA41B" x="203" y="174" width="29" height="29"></rect>
            <rect id="Rectangle-Copy-17" fill="#FFD01B" x="174" y="203" width="29" height="29"></rect>
            <rect id="Rectangle-Copy-35" fill="#FFD01B" x="29" y="116" width="29" height="29"></rect>
            <rect id="Rectangle-Copy-34" fill="#FFA41B" x="58" y="116" width="29" height="29"></rect>
            <rect id="Rectangle-Copy-33" fill="#FFD01B" x="29" y="145" width="29" height="29"></rect>
            <rect id="Rectangle-Copy-37" fill="#FFA41B" x="29" y="58" width="29" height="29"></rect>
            <rect id="Rectangle-Copy-36" fill="#FFD01B" x="29" y="87" width="29" height="29"></rect>
            <rect id="Rectangle-Copy-32" fill="#FFD01B" x="58" y="145" width="29" height="29"></rect>
            <rect id="Rectangle-Copy-31" fill="#FFD01B" x="29" y="174" width="29" height="29"></rect>
            <rect id="Rectangle-Copy-30" fill="#FFD01B" x="58" y="174" width="29" height="29"></rect>
            <rect id="Rectangle-Copy-29" fill="#FFD01B" x="29" y="203" width="29" height="29"></rect>
            <rect id="Rectangle-Copy-41" fill="#FFA41B" x="0" y="116" width="29" height="29"></rect>
            <rect id="Rectangle-Copy-40" fill="#FFD01B" x="0" y="145" width="29" height="29"></rect>
            <rect id="Rectangle-Copy-39" fill="#FFD01B" x="0" y="174" width="29" height="29"></rect>
            <rect id="Rectangle-Copy-38" fill="#FFA41B" x="0" y="203" width="29" height="29"></rect>
            <rect id="Rectangle-Copy-28" fill="#FFD01B" x="58" y="203" width="29" height="29"></rect>
            <rect id="Rectangle-Copy-27" fill="#FFA41B" x="87" y="116" width="29" height="29"></rect>
            <rect id="Rectangle-Copy-26" fill="#FFA41B" x="87" y="145" width="29" height="29"></rect>
            <rect id="Rectangle-Copy-25" fill="#FFA41B" x="87" y="174" width="29" height="29"></rect>
            <rect id="Rectangle-Copy-24" fill="#FFA41B" x="87" y="203" width="29" height="29"></rect>
            <rect id="Rectangle-Copy-16" fill="#FFD01B" x="203" y="203" width="29" height="29"></rect>
            <rect id="Rectangle-Copy-48" fill="#FFD01B" x="116" y="232" width="29" height="29"></rect>
            <rect id="Rectangle-Copy-47" fill="#FFD01B" x="145" y="232" width="29" height="29"></rect>
            <rect id="Rectangle-Copy-46" fill="#FFD01B" x="174" y="232" width="29" height="29"></rect>
            <rect id="Rectangle-Copy-45" fill="#FFA41B" x="29" y="232" width="29" height="29"></rect>
            <rect id="Rectangle-Copy-44" fill="#FFA41B" x="58" y="232" width="29" height="29"></rect>
            <rect id="Rectangle-Copy-43" fill="#FFD01B" x="87" y="232" width="29" height="29"></rect>
            <rect id="Rectangle-Copy-54" fill="#FFD01B" x="116" y="261" width="29" height="29"></rect>
            <rect id="Rectangle-Copy-53" fill="#FFD01B" x="145" y="261" width="29" height="29"></rect>
            <rect id="Rectangle-Copy-52" fill="#FFA41B" x="174" y="261" width="29" height="29"></rect>
            <rect id="Rectangle-Copy-50" fill="#FFA41B" x="58" y="261" width="29" height="29"></rect>
            <rect id="Rectangle-Copy-49" fill="#FFD01B" x="87" y="261" width="29" height="29"></rect>
            <rect id="Rectangle-Copy-57" fill="#FFA41B" x="116" y="290" width="29" height="29"></rect>
            <rect id="Rectangle-Copy-55" fill="#FFA41B" x="58" y="290" width="29" height="29"></rect>
            <rect id="Rectangle-Copy-51" fill="#FFA41B" x="87" y="290" width="29" height="29"></rect>
            <rect id="Rectangle-Copy-42" fill="#FFA41B" x="203" y="232" width="29" height="29"></rect>
            <rect id="Rectangle-Copy-3" fill="#FFA41B" x="174" y="87" width="29" height="29"></rect>
            <rect id="Rectangle-Copy-56" fill="#FFA41B" x="174" y="58" width="29" height="29"></rect>
            <rect id="Rectangle-Copy-58" fill="#FFA41B" x="174" y="29" width="29" height="29"></rect>
        </g>
    </g>
</svg>